<?xml version="1.0" encoding="UTF-8" standalone="no"?>
<!-- Created with Inkscape (http://www.inkscape.org/) -->

<svg
   xmlns:dc="http://purl.org/dc/elements/1.1/"
   xmlns:cc="http://creativecommons.org/ns#"
   xmlns:rdf="http://www.w3.org/1999/02/22-rdf-syntax-ns#"
   xmlns:svg="http://www.w3.org/2000/svg"
   xmlns="http://www.w3.org/2000/svg"
   xmlns:sodipodi="http://sodipodi.sourceforge.net/DTD/sodipodi-0.dtd"
   xmlns:inkscape="http://www.inkscape.org/namespaces/inkscape"
   id="svg2985"
   height="305.46875"
   width="603.03125"
   version="1.1"
   inkscape:version="0.48.3.1 r9886"
   sodipodi:docname="Loader.svg">
  <defs
     id="defs18656" />
  <sodipodi:namedview
     pagecolor="#ffffff"
     bordercolor="#666666"
     borderopacity="1"
     objecttolerance="10"
     gridtolerance="10"
     guidetolerance="10"
     inkscape:pageopacity="0"
     inkscape:pageshadow="2"
     inkscape:window-width="2048"
     inkscape:window-height="1103"
     id="namedview18654"
     showgrid="false"
     inkscape:zoom="1.3531637"
     inkscape:cx="62.815754"
     inkscape:cy="152.73438"
     inkscape:window-x="0"
     inkscape:window-y="29"
     inkscape:window-maximized="1"
     inkscape:current-layer="svg2985"
     fit-margin-top="10"
     fit-margin-left="10"
     fit-margin-bottom="10"
     fit-margin-right="10" />
  <metadata
     id="metadata2991">
    <rdf:RDF>
      <cc:Work
         rdf:about="">
        <dc:format>image/svg+xml</dc:format>
        <dc:type
           rdf:resource="http://purl.org/dc/dcmitype/StillImage" />
        <dc:title />
      </cc:Work>
    </rdf:RDF>
  </metadata>
  <g
     id="g18677"
     transform="translate(-40.4375,-112.46875)">
    <g
       id="g3952"
       style="stroke:#5c5851">
      <path
         d="m 298.3,219.71 -8.5526,-27.313 4.2763,-0.82766 z"
         id="path3910"
         inkscape:connector-curvature="0"
         style="fill:none;stroke-width:2.96370006" />
      <path
         transform="matrix(1.0106,-0.069019,0,0.78889,-11.888,59.252)"
         d="m 313.9,189.09 a 15.2055,5.1188683 0 1 1 -30.411,0 15.2055,5.1188683 0 1 1 30.411,0 z"
         id="path3902"
         inkscape:connector-curvature="0"
         style="fill-opacity:0;stroke-width:3" />
      <path
         d="m 292.25,192.5 c -1.0898,-0.0966 -1.7313,1.0706 -1.2326,1.976 0.5735,1.6645 0.87167,3.4796 1.7454,5.0105 0.86339,0.80138 2.0453,-0.26673 1.6749,-1.2608 -0.29317,-1.6998 -0.31354,-3.4989 -0.908,-5.1187 -0.252,-0.46037 -0.78099,-0.6681 -1.2797,-0.6069 z"
         id="path3916"
         inkscape:connector-curvature="0"
         style="fill:#5c5851;stroke-width:3" />
      <path
         d="m 290.15,183.88 -0.54583,3.4451 -3.6025,4.2013 12.117,-1.4284 -8.2966,-2.9409 2.4017,-3.193 z"
         id="path3926"
         inkscape:connector-curvature="0"
         style="fill:none;stroke-width:2.69899988;stroke-linejoin:round" />
      <path
         d="m 289.87,186.97 c -0.5789,0.57655 -1.0676,1.3059 -1.3617,2.0677 -0.20339,0.88159 0.80137,1.492 1.5679,1.1725 1.0472,-0.23234 2.1656,-0.16769 3.1537,-0.60546 0.69483,-0.60413 0.24577,-1.6874 -0.59233,-1.8663 -0.78342,-0.27798 -1.5219,-0.89097 -2.3611,-0.88273 -0.1355,0.0381 -0.271,0.0762 -0.4065,0.11424 z"
         id="path3928"
         inkscape:connector-curvature="0"
         style="fill:#5c5851;stroke-width:0.31935999;stroke-linejoin:round" />
    </g>
    <g
       id="g3838"
       style="stroke:#5c5851;stroke-width:3">
      <path
         d="m 481.46,250.82 c 9.8001,-5.5735 13.703,-1.0377 18.066,2.7099 l -2.4088,10.84 c 9.5589,32.51 -0.0829,49.476 -6.6242,68.952 l -20.475,-36.132 12.044,-33.422 c -3.2662,0.28101 -6.5488,0.67696 -9.033,-4.5165 l 1.8066,-7.5275 z"
         id="path3834"
         inkscape:connector-curvature="0"
         style="fill:#c2ae0e" />
      <path
         d="m 461.28,294.17 7.5275,28.905 20.174,-7.2264 c 13.031,-16.963 -6.0302,-18.967 -16.259,-23.787 z"
         id="path3836"
         inkscape:connector-curvature="0"
         style="fill:none" />
    </g>
    <g
       id="g3885"
       style="stroke:#5c5851;stroke-width:3">
      <rect
         x="389.12"
         y="178.60001"
         width="79.489998"
         height="15.356"
         transform="matrix(0.99026855,0.13916964,-0.13916964,0.99026855,0,0)"
         id="rect3032"
         style="fill:#c2ae0e;fill-rule:evenodd" />
      <path
         transform="matrix(0.9961,0.15777,-0.14418,0.91029,35.84,-44.758)"
         d="m 451.65,247.2 a 6.3231,10.84 0 1 1 -12.646,0 6.3231,10.84 0 1 1 12.646,0 z"
         id="path3810"
         inkscape:connector-curvature="0"
         style="fill:#c2ae0e" />
      <rect
         x="483.84"
         y="174.7"
         width="24.990999"
         height="6.0219998"
         transform="matrix(0.98768916,0.15642929,-0.15642929,0.98768916,0,0)"
         id="rect3818"
         style="fill:#ffffff;stroke-linejoin:bevel" />
    </g>
    <g
       id="layer2">
      <g
         id="g4311">
        <path
           d="m 401.69,279.41 c -0.20654,-0.53825 -0.42171,-0.56634 -1.1897,-0.15534 -0.65539,0.35075 -2.2863,0.41455 -5.4193,0.212 -2.465,-0.15937 -4.5537,-0.3617 -4.6416,-0.44963 -0.0879,-0.0879 0.67124,-1.7053 1.6871,-3.5942 2.3434,-4.3576 2.8486,-4.4264 7.8441,-1.068 4.205,2.8269 5.7128,4.1606 5.7128,5.0532 0,0.93369 -3.6352,0.93548 -3.9934,0.002 v 10e-6 z"
           id="path4300"
           inkscape:connector-curvature="0"
           style="fill:#c2ae0e;stroke:#c2ae0e;stroke-width:1.27750003;stroke-linejoin:round" />
        <g
           id="g4293">
          <path
             d="m 508.85,385.34 c -42.87,2.7 -46.99,-98.66 -149.89,-133.28 l 2.1291,-25.123 c 80.183,24.428 109.62,48.852 140.95,135.41 l 10.22,8.5164 1.2775,14.904 -4.684,-0.42582"
             id="path4291"
             inkscape:connector-curvature="0"
             style="fill:#c2ae0e;stroke:#5c5851;stroke-width:3" />
          <g
             id="g4286">
            <path
               d="m 334.27,225.66 25.549,0.42582 v 26.401 l 33.214,17.459 -5.5356,10.645 20.013,1.7033 -47.266,70.26 -26.827,13.2 -20.013,-8.5164 -1e-5,-71.112 c 18.365,-13.088 20.377,-35.46 20.865,-60.466"
               id="path4282"
               inkscape:connector-curvature="0"
               style="fill:#c2ae0e;stroke:#5c5851;stroke-width:3" />
            <rect
               x="467.64999"
               y="27.452"
               width="11.258"
               height="75.023003"
               transform="matrix(0.82233,0.56901,-0.61215,0.79074,0,0)"
               id="rect4181"
               style="fill:#a49515;stroke:#71643a;stroke-width:1.47290003;stroke-opacity:0.96294998" />
            <path
               d="m 336.4,305.28 11.923,-43.433 53.653,0.85163 -4.2582,8.0906 -41.73,1.7033 -13.626,34.917 z"
               id="path4284"
               inkscape:connector-curvature="0"
               style="fill:#c2ae0e;stroke:#5c5851;stroke-width:2;stroke-linejoin:round" />
          </g>
        </g>
      </g>
      <rect
         x="238.92"
         y="284.88"
         width="74.874001"
         height="73.170998"
         rx="4"
         id="rect4280"
         style="fill:#c2ae0e;stroke:#5c5851;stroke-width:2.06949997" />
      <g
         id="g4270"
         style="fill:#c2ae0e">
        <g
           id="g4262">
          <rect
             x="275.07999"
             y="267.81"
             width="31.511"
             height="14.904"
             ry="2.7966001"
             rx="2.9159"
             id="rect4246"
             style="stroke:#595553;stroke-width:3;stroke-linejoin:round;stroke-opacity:0.96863002" />
          <rect
             x="361.04999"
             y="271.35999"
             width="54.931"
             height="19.58"
             ry="2.7966001"
             rx="2.9159"
             transform="matrix(1,0,-0.35425,0.93515,0,0)"
             id="rect4244"
             style="stroke:#595553;stroke-width:3.10229993;stroke-opacity:0.96863002" />
          <rect
             x="63.873001"
             y="230.77"
             width="133.28"
             height="57.910999"
             id="rect4185"
             style="stroke:#595553;stroke-width:3;stroke-opacity:0.96826998" />
          <rect
             x="106.45"
             y="289.10001"
             width="43.007999"
             height="26.197001"
             id="rect4193"
             style="stroke:#5b5751;stroke-width:2.91869998" />
          <rect
             x="51.985001"
             y="288.70999"
             width="53.157001"
             height="35.272999"
             ry="2.6214001"
             rx="2.4967"
             id="rect4225"
             style="stroke:#5b5751;stroke-width:3.06990004;stroke-linejoin:round" />
          <rect
             x="191.19"
             y="250.78"
             width="87.292999"
             height="103.05"
             ry="2.6152"
             rx="2.9159"
             id="rect4240" />
        </g>
        <rect
           x="266.98999"
           y="258.01999"
           width="38.324001"
           height="22.993999"
           id="rect4252" />
      </g>
      <path
         d="m 74.555,401.63 552.68,3.6824"
         id="path4183"
         inkscape:connector-curvature="0"
         style="fill:none;stroke:#595553;stroke-width:5.24100018;stroke-opacity:0.96826998" />
      <path
         d="m 223.72,337.53 a 52.391,52.391 0 1 1 -104.78,0 52.391,52.391 0 1 1 104.78,0 z"
         id="path3167"
         inkscape:connector-curvature="0"
         style="opacity:0" />
      <g
         id="g4154">
        <path
           transform="matrix(1.0041,0,0,1.0696,-2.1348,-23.289)"
           d="m 233.65,340.24 a 60.22,58.811 0 1 1 -120.44,0 60.22,58.811 0 1 1 120.44,0 z"
           id="path2999"
           inkscape:connector-curvature="0"
           style="fill:#4d4950;stroke:#6d5f62;stroke-width:3.85969996;stroke-dasharray:7.71937991, 3.85968996" />
        <path
           transform="matrix(1.067,0,0,0.99865,-10.433,-0.77452)"
           d="m 193.91,341.75 a 23.636,25.593 0 1 1 -2.1e-4,-0.10798"
           id="path4147"
           inkscape:connector-curvature="0"
           style="fill:#a49515;stroke:#645a58;stroke-width:3.82739997" />
        <path
           transform="matrix(0.9587,0,0,1,6.4809,0)"
           d="m 186.51,340.2 a 14.797,13.626 0 1 1 -1.4e-4,-0.0575"
           id="path4149"
           inkscape:connector-curvature="0"
           style="fill:#bcab0a;stroke:#635d5f;stroke-width:2" />
      </g>
      <g
         transform="matrix(1.0291,0,0,1.0116,243.74,-2.7987)"
         id="g4159">
        <path
           transform="matrix(1.0041,0,0,1.0696,-2.1348,-23.289)"
           d="m 233.65,340.24 c 0,32.48 -26.961,58.811 -60.22,58.811 -33.258,0 -60.22,-26.331 -60.22,-58.811 0,-32.48 26.961,-58.811 60.22,-58.811 33.258,0 60.22,26.331 60.22,58.811 z"
           id="path4161"
           inkscape:connector-curvature="0"
           style="fill:#4d4950;stroke:#6d5f62;stroke-width:3.85969996;stroke-dasharray:7.71937991, 3.85968996" />
        <path
           transform="matrix(1.067,0,0,0.99865,-10.433,-0.77452)"
           d="m 193.91,341.75 c 0,14.135 -10.582,25.593 -23.636,25.593 -13.054,0 -23.636,-11.459 -23.636,-25.593 0,-14.135 10.582,-25.593 23.636,-25.593 13.015,0 23.581,11.393 23.636,25.485"
           id="path4163"
           inkscape:connector-curvature="0"
           style="fill:#a49515;stroke:#645a58;stroke-width:3.82739997" />
        <path
           transform="matrix(0.9587,0,0,1,6.4809,0)"
           d="m 186.51,340.2 c 0,7.5255 -6.6249,13.626 -14.797,13.626 -8.1723,0 -14.797,-6.1006 -14.797,-13.626 0,-7.5255 6.6249,-13.626 14.797,-13.626 8.1479,0 14.763,6.0657 14.797,13.569"
           id="path4165"
           inkscape:connector-curvature="0"
           style="fill:#bcab0a;stroke:#635d5f;stroke-width:2" />
      </g>
      <g
         id="g4175"
         style="fill:none;stroke:#6d5f62;stroke-width:3">
        <path
           d="m 240.58,259.55 0.6022,93.341 37.035,-0.3011 1.2044,-93.943"
           id="path4167"
           inkscape:connector-curvature="0" />
        <path
           d="m 240.58,276.71 h 38.842"
           id="path4169"
           inkscape:connector-curvature="0" />
        <path
           d="m 240.58,302.91 38.24,-0.6022"
           id="path4171"
           inkscape:connector-curvature="0" />
        <path
           d="m 240.58,327.9 h 37.637"
           id="path4173"
           inkscape:connector-curvature="0" />
      </g>
      <g
         transform="matrix(1,0,0,1.0091,0,-1.1112)"
         id="g4330" />
    </g>
    <g
       id="g3906"
       style="stroke:#5c5851">
      <path
         d="m 286.72,134.51 -2.7223,84.782 26.445,0.42604 -3.889,-84.782 z m 11.511,118.73 c -16.047,-0.0933 -20.054,-0.22922 -20.516,-0.6956 -0.46579,-0.47002 -6.2744,-0.63197 -30.731,-0.85682 -16.586,-0.1525 -34.228,-0.39902 -39.205,-0.54782 l -9.0486,-0.27058 v -10.47 -10.47 h -1.058 c -1.0307,0 -1.0521,-0.0637 -0.82864,-2.4707 0.12616,-1.3589 1.6479,-24.972 3.3816,-52.474 1.7338,-27.502 3.2284,-50.08 3.3214,-50.174 0.093,-0.0939 21.61,0.0245 47.816,0.26295 26.206,0.23845 50.051,0.4358 52.989,0.43853 l 5.342,0.005 1.6666,47.748 1.6666,47.748 4.4371,6.4266 4.4371,6.4266 -1.1622,8.6664 c -1.4409,10.744 -1.4999,11.053 -2.0882,10.927 -0.26348,-0.0567 -9.4528,-0.15528 -20.421,-0.21912 z m -75.016,-31.692 c 4.684,-0.34927 8.9247,-0.63657 9.4238,-0.63844 0.88306,-0.003 0.81145,-0.47853 -2.6654,-17.688 -1.965,-9.7265 -3.4966,-17.761 -3.4034,-17.855 0.0932,-0.0941 2.0528,-0.0153 4.3547,0.17499 l 4.1853,0.34594 5.0045,13.057 c 2.7525,7.1811 5.0655,13.118 5.1401,13.193 0.0745,0.0752 5.1103,0.81109 11.19,1.6353 12.362,1.6757 10.765,1.0523 14.715,5.7442 1.4031,1.6668 1.7439,1.8411 4.0814,2.0876 l 2.5505,0.269 0.28324,-23.327 c 0.15578,-12.83 0.28323,-32.48 0.28323,-43.667 v -20.339 h -29.575 -29.575 l -0.22498,1.3965 c -0.12374,0.76806 -1.6609,19.669 -3.4158,42.001 -1.755,22.333 -3.2875,41.427 -3.4056,42.431 -0.25806,2.1941 -1.2058,2.093 11.053,1.179 z m -9.8807,-0.54541 6.8131,-85.077 h 57.06 l -0.42581,84.647 -3.4066,-0.42968 -5.1098,-6.0156 -22.143,-3.0078 -10.22,-26.64 -11.071,-0.42967 7.2389,35.664 z m -17.884,9.8827 6.8131,-107.42 108.58,0.85935 3.4065,96.249 8.9422,12.89 -2.9807,21.914 -124.34,-3.4375 z"
         id="path4335"
         inkscape:connector-curvature="0"
         style="fill:none;stroke-width:2" />
      <path
         d="m 287.85,252.01 -8.8357,-0.13719 -1.3839,-0.54746 -1.3839,-0.54747 -19.588,-0.13229 c -19.671,-0.13285 -40.134,-0.40457 -50.938,-0.67641 l -5.8018,-0.14596 v -10.51 -10.51 h -1.0545 -1.0545 l 0.10625,-1.0113 c 0.0584,-0.55622 1.2987,-19.646 2.7561,-42.422 2.8482,-44.511 3.6384,-56.508 3.841,-58.319 l 0.12899,-1.1528 23.986,0.13729 c 23.181,0.13268 79.96,0.59423 80.001,0.65032 0.011,0.0151 0.7603,21.338 1.6651,47.385 l 1.645,47.358 4.2834,6.1891 c 2.3559,3.404 4.3193,6.4286 4.3633,6.7214 0.0693,0.46187 -0.80473,7.2017 -1.995,15.383 l -0.36396,2.5017 -10.77,-0.0384 c -5.9237,-0.0211 -14.746,-0.10011 -19.606,-0.17557 z m -63.766,-29.394 c 8.9669,-0.62869 9.3838,-0.67664 9.7359,-1.1199 0.71817,-0.90405 0.71441,-0.92902 -2.9231,-19.412 -1.3367,-6.7918 -2.5686,-13.103 -2.7377,-14.024 l -0.30744,-1.6752 1.2034,0.12545 c 0.66187,0.069 2.1174,0.18778 3.2345,0.26395 l 2.0311,0.13848 1.1367,3.0081 c 3.3453,8.8528 8.8298,22.841 9.0386,23.052 0.13212,0.13389 4.0726,0.78272 8.7566,1.4419 11.041,1.5538 12.389,1.7784 13.431,2.2395 0.5983,0.26463 1.4441,1.052 2.7125,2.5253 2.0663,2.4 2.6481,2.8816 3.8719,3.2047 0.91619,0.24194 5.4093,0.76017 5.5315,0.63799 0.1257,-0.1257 0.51668,-37.908 0.66668,-64.425 l 0.14242,-25.176 h -30.665 -30.665 l -0.12904,0.5855 c -0.1402,0.6361 -2.9686,34.838 -5.5759,67.425 -1.5041,18.799 -1.6079,20.469 -1.3031,20.971 0.63331,1.0438 0.90079,1.0482 12.813,0.21298 z m 87.443,-2.8604 c -0.37673,-8.8515 -3.9216,-85.812 -3.9541,-85.845 -0.12285,-0.12285 -21.678,-0.52193 -21.796,-0.40355 -0.20419,0.2042 -2.931,86.531 -2.7393,86.723 0.13013,0.13034 25.985,0.6948 28.012,0.61153 0.49004,-0.0201 0.52079,-0.0899 0.4784,-1.0861 z"
         id="path4346"
         inkscape:connector-curvature="0"
         style="fill:#76716d" />
    </g>
    <g
       id="g3873"
       style="fill:#c2ae0e;stroke:#5c5851;stroke-width:3">
      <path
         d="m 561.85,309.83 c -3.36,-14.111 8.1398,-9.4217 16.862,-8.4308 l 6.022,-0.3011 -8.1297,17.163 c 0.60403,11.519 15.055,40.347 22.582,60.521 11.106,21.758 22.079,15.437 32.218,23.185 l -2.4088,3.3121 h -28.002 z"
         id="path3871"
         inkscape:connector-curvature="0" />
      <path
         d="m 561.85,309.23 37.938,92.738 -66.844,-0.3011 c -25.368,-5.9127 -27.365,-30.584 -3.011,-74.974 z"
         id="path3842"
         inkscape:connector-curvature="0" />
    </g>
    <g
       id="g3867"
       style="fill:#c2ae0e">
      <path
         d="m 498.62,353.49 11.141,-5.7209 18.668,-18.066 -17.163,17.765 3.011,12.044 -13.549,1.8066 z"
         id="path3844"
         inkscape:connector-curvature="0"
         style="stroke:#5c5851;stroke-width:3" />
      <path
         d="m 521.99,337.34 c -0.43799,0.13523 -0.68904,0.54725 -1.0128,0.84182 -2.9266,3.0227 -5.8616,6.0373 -8.7704,9.0764 -0.28873,0.30673 -0.30911,0.76395 -0.17373,1.1451 0.67286,2.6834 1.3377,5.3692 2.0156,8.051 0.13985,0.54848 0.79387,0.88304 1.3165,0.66079 0.3971,-0.13169 0.59599,-0.53175 0.6942,-0.91084 1.5354,-4.635 3.337,-9.1702 5.3402,-13.623 0.57454,-1.3055 1.2,-2.5879 1.7823,-3.8896 0.21596,-0.50714 -0.0617,-1.1581 -0.59261,-1.3248 -0.19109,-0.0762 -0.40106,-0.0682 -0.59918,-0.0267 z"
         id="path3865"
         inkscape:connector-curvature="0"
         style="stroke:#c2ae0e;stroke-width:0.079841;stroke-linejoin:bevel" />
    </g>
    <rect
       x="155.97"
       y="182.77"
       width="7.2263999"
       height="47.574001"
       id="rect3877"
       style="fill:#ffffff;stroke:#5c5851;stroke-width:3;stroke-linejoin:bevel" />
    <rect
       x="396.10001"
       y="404.19"
       width="8.5151997"
       height="16.5"
       transform="matrix(0.75011,-0.66132,0,1,0,0)"
       id="rect3900"
       style="fill:#ffffff;stroke:#5c5851;stroke-width:3.46390009" />
  </g>
  <text
     xml:space="preserve"
     style="font-size:29.41338348px;font-style:normal;font-variant:normal;font-weight:bold;font-stretch:normal;text-align:start;line-height:125%;letter-spacing:0px;word-spacing:0px;writing-mode:lr-tb;text-anchor:start;fill:#414141;fill-opacity:1;stroke:none;font-family:Allerta Stencil;-inkscape-font-specification:Allerta Stencil Bold"
     x="27.935831"
     y="160.55272"
     id="text18738"
     sodipodi:linespacing="125%"><tspan
       sodipodi:role="line"
       id="tspan18740"
       x="27.935831"
       y="160.55272">MapReduce</tspan></text>
</svg>
