<?xml version="1.0" encoding="UTF-8"?>
<!-- Generator: Adobe Illustrator 13.0.0, SVG Export Plug-In  -->
<!DOCTYPE svg PUBLIC "-//W3C//DTD SVG 1.1//EN" "http://www.w3.org/Graphics/SVG/1.1/DTD/svg11.dtd" [
	<!ENTITY ns_flows "http://ns.adobe.com/Flows/1.0/">
]>
<svg version="1.1" xmlns="http://www.w3.org/2000/svg" xmlns:xlink="http://www.w3.org/1999/xlink" xmlns:a="http://ns.adobe.com/AdobeSVGViewerExtensions/3.0/" x="0px" y="0px" width="399px" height="186px" viewBox="-0.141 -0.562 399 186" enable-background="new -0.141 -0.562 399 186" xml:space="preserve">
<defs>
</defs>
<rect fill="#EE3424" width="398.535" height="184.82"/>
<path d="M68.709,45.705v1.582c0,0-0.006,2.791-0.006,5.217c-2.43-2.688-6.125-6.799-6.125-6.799H45.707l0.008,83.775l9.719,7.676  l10.133-1.27c0,0,0.043-4.424,0.072-7.426c3.328,2.738,7.885,6.477,7.885,6.477l16.596-1.691V54.328l-9.006-8.605L68.709,45.705z"/>
<path d="M170.896,45.695h-28.84v11.16c0,0,7.623,5.992,8.672,6.814c0,1.494,0,57.516,0,57.516l9.545,7.662l11.543-0.293  c0,0,0-61.91,0-64.891c2.086-0.018,8.531-0.064,8.531-0.064v-8.123l-8.748-9.781H170.896z"/>
<polygon points="287.465,45.705 276.105,45.705 276.105,122.709 285.793,131.695 297.254,132.645 297.254,54.539 288.105,45.705 "/>
<path d="M343.9,92.781c0.105-0.566,6.869-37.637,6.869-37.637l-9.225-9.434h-0.668h-11.354c0,0-0.617,3.879-1.016,6.316  c-2.383-2.584-5.818-6.316-5.818-6.316h-12.393c0,0,7.066,36.992,7.172,37.529c-0.088,0.539-6.77,42.117-6.77,42.117l13.129,9.99  l7.84,0.932c0,0,0-4.541,0-7.01c3.297,2.566,10.801,8.41,10.801,8.41l10.359,1.426C352.828,139.105,344.012,93.355,343.9,92.781z"/>
<path d="M256.316,109.457c0-4.93,0-55.195,0-55.195l-9.027-8.557h-0.629h-11.5v75.129l9.623,8.426l21.955,1.092l-0.486-9.734  C266.252,120.617,258.527,111.939,256.316,109.457z"/>
<path d="M124.629,62.367c2.188,0,9.426,0,9.426,0v-8.061l-8.992-8.615h-0.633l-20.984,0.014v78.146l9.484,7.471l21.125-1.324v-8.646  c0,0-8.68-9.602-9.426-10.43c0-1.012,0-11.5,0-13.965c2.199,0,9.555,0,9.555,0v-8.713c0,0-8.719-8.721-9.555-9.561  C124.629,77.57,124.629,64.91,124.629,62.367z"/>
<path d="M212.66,62.359c2.191,0,9.426,0,9.426,0v-8.059l-8.992-8.609h-0.633l-20.986,0.014v74.604l9.621,7.99l11.564,0.08  c0,0,0-28.57,0-31.426c2.203,0,9.555,0.004,9.555,0.004v-8.713c0,0-8.719-8.721-9.555-9.561  C212.66,77.57,212.66,64.902,212.66,62.359z"/>
<path fill="#FFFFFF" d="M278.617,121.273c0,0,2.93,0.145,7.955,0.512V47.934l-7.955,0.016V121.273z"/>
<path fill="#FFFFFF" d="M144.574,55.312h8.672v64.242c0,0,1.859-0.148,7.938-0.285l0.043-63.943h8.777v-7.369l-25.43-0.008V55.312z"/>
<path fill="#FFFFFF" d="M71.473,111.418l-0.562,0.066l-9.695-63.527l-12.908-0.014l0.006,79.74c0,0,2.562-0.369,8.016-0.988  l-0.562-60.611l0.559-0.053l9.223,59.715c0,0,3.152-0.371,13.871-1.432V47.949h-8.234L71.473,111.418z"/>
<polygon fill="#FFFFFF" points="340.496,47.934 331.523,47.934 327.016,76.426 326.486,76.426 321.805,47.934 312.998,47.934   319.877,83.176 313.227,124.367 321.787,125.182 326.193,91.221 326.732,91.232 331.008,126.143 340.396,127.184 333.688,84.18 "/>
<path fill="#FFFFFF" d="M245.674,47.93l-7.994,0.014v71.354c0,0,5.416,0.154,18.482,0.738v-7.242c0,0-1.463-0.15-10.488-0.465V47.93  z"/>
<path fill="#FFFFFF" d="M105.961,122.156c0,0,4.719-0.328,18.365-1.205v-7.289l-10.318,0.709V88.824l10.318-0.008v-7.428  l-10.357,0.006V55.316h10.395v-7.373l-18.402,0.006V122.156z"/>
<polygon fill="#FFFFFF" points="193.992,118.713 202.043,118.713 202.043,88.824 212.359,88.816 212.359,81.387 202,81.395   202,55.316 212.395,55.316 212.395,47.943 193.992,47.949 "/>
</svg>